<mxfile host="app.diagrams.net" modified="2024-01-04T19:49:53.408Z" agent="Mozilla/5.0 (Windows NT 10.0; Win64; x64) AppleWebKit/537.36 (KHTML, like Gecko) Chrome/120.0.0.0 Safari/537.36" version="22.1.16" etag="O_c8Cv83HRmo2RkjxNpy" type="github">
  <diagram name="Page-1" id="hB_reyWzEcTotlNTChWR">
    <mxGraphModel>
      <root>
        <mxCell id="0" />
        <mxCell id="1" parent="0" />
      </root>
    </mxGraphModel>
  </diagram>
</mxfile>
